<?xml version="1.0" standalone="no"?>
<!DOCTYPE svg PUBLIC "-//W3C//DTD SVG 20010904//EN"
 "http://www.w3.org/TR/2001/REC-SVG-20010904/DTD/svg10.dtd">
<svg version="1.0" xmlns="http://www.w3.org/2000/svg"
 width="472.000000pt" height="413.000000pt" viewBox="0 0 472.000000 413.000000"
 preserveAspectRatio="xMidYMid meet">

<g transform="translate(0.000000,413.000000) scale(0.100000,-0.100000)"
fill="#000000" stroke="none">
<path d="M226 4102 c-82 -32 -160 -103 -197 -177 l-24 -50 0 -1810 0 -1810 24
-50 c35 -69 100 -131 179 -168 l67 -32 2085 0 2085 0 67 32 c79 37 144 99 179
168 l24 50 0 1810 0 1810 -24 50 c-35 69 -100 131 -179 168 l-67 32 -2075 2
-2075 2 -69 -27z m3771 -474 c73 -39 114 -78 149 -140 l29 -53 0 -1370 0
-1370 -29 -53 c-35 -62 -76 -101 -149 -140 l-52 -27 -1585 0 -1585 0 -52 27
c-73 39 -114 78 -149 140 l-29 53 0 1370 0 1370 22 41 c32 61 70 101 120 131
95 55 -5 52 1688 50 l1570 -2 52 -27z"/>
<path d="M782 3547 c-50 -19 -102 -65 -123 -111 -18 -39 -19 -93 -19 -1371 0
-1272 1 -1332 19 -1371 22 -49 78 -97 130 -113 55 -16 3087 -16 3142 0 52 16
108 64 130 113 18 39 19 99 19 1371 0 1272 -1 1332 -19 1371 -22 49 -78 97
-130 113 -56 16 -3103 14 -3149 -2z m2793 -167 c13 -14 16 -29 12 -55 -8 -49
-84 -205 -202 -415 -436 -777 -595 -1115 -595 -1265 0 -36 0 -36 33 -30 107
23 423 254 577 422 l52 57 24 -31 c22 -29 26 -30 54 -20 17 6 30 17 30 23 0 7
-13 38 -30 69 -58 111 -29 245 68 306 80 51 184 32 226 -39 27 -49 11 -97 -55
-156 -28 -25 -54 -46 -58 -46 -4 0 -12 14 -18 31 -11 27 -9 35 14 70 14 22 23
42 19 46 -11 12 -76 -26 -88 -51 -13 -29 6 -67 73 -146 38 -45 42 -48 102 -52
82 -7 107 -22 107 -68 l0 -35 -68 3 -68 3 -10 -78 c-20 -153 -96 -257 -234
-327 -119 -59 -216 -57 -277 6 -24 25 -28 38 -28 82 l0 54 -55 -45 c-156 -126
-274 -187 -362 -188 -61 0 -93 17 -132 69 -32 43 -29 190 7 318 38 134 122
342 217 532 44 88 73 153 66 145 -7 -8 -96 -126 -196 -264 -336 -459 -482
-635 -562 -676 -50 -26 -64 -24 -99 10 -26 26 -29 37 -29 89 0 115 67 320 225
691 46 106 77 187 70 180 -6 -8 -58 -72 -115 -144 -195 -245 -333 -400 -549
-615 -221 -221 -300 -287 -454 -383 -139 -88 -225 -120 -333 -125 -83 -4 -94
-2 -113 17 -23 23 -28 73 -8 89 6 5 37 13 67 17 279 37 566 223 879 570 171
189 215 242 373 440 208 262 359 468 440 599 40 66 85 128 100 139 55 41 118
13 118 -51 0 -62 -105 -342 -340 -907 -138 -332 -132 -318 -120 -310 23 14
335 414 585 750 311 417 396 526 479 614 95 100 144 122 181 81z m-2111 -2235
c26 -26 -3 -62 -39 -49 -15 6 -21 45 -8 57 11 11 31 8 47 -8z m-240 -6 c27 -8
41 -8 49 0 22 22 27 10 27 -59 0 -38 -3 -70 -8 -70 -4 0 -16 19 -27 42 -25 55
-76 78 -122 56 -21 -10 -28 -20 -28 -43 0 -26 8 -33 77 -70 105 -56 128 -79
128 -127 0 -78 -65 -111 -186 -94 -34 5 -54 4 -59 -3 -16 -27 -25 -6 -25 59 0
77 12 89 34 36 18 -44 52 -66 101 -66 54 0 78 18 73 55 -2 24 -15 35 -83 72
-44 24 -90 55 -102 69 -55 61 0 148 97 153 8 1 32 -4 54 -10z m1476 -164 l0
-175 25 -6 c50 -12 23 -24 -55 -24 -44 0 -80 4 -80 9 0 5 10 11 23 13 22 3 22
6 25 150 l3 147 -33 3 -33 4 55 26 c30 15 58 27 63 27 4 1 7 -78 7 -174z m339
147 c36 -26 61 -81 61 -131 0 -106 -95 -206 -212 -224 -29 -4 -38 -2 -38 9 0
8 10 14 25 14 42 0 84 28 115 77 17 26 28 48 27 50 -2 1 -20 -2 -40 -8 -95
-26 -168 72 -121 164 38 73 121 96 183 49z m274 14 c52 -22 79 -59 85 -115 7
-78 -4 -115 -54 -170 -44 -49 -89 -73 -162 -85 -45 -8 -38 16 8 25 41 9 78 36
108 79 29 43 28 52 -5 43 -87 -23 -149 22 -147 106 2 45 27 87 69 112 36 23
55 24 98 5z m331 -11 c14 -9 35 -37 47 -62 58 -121 -44 -273 -199 -297 -58 -9
-53 15 5 27 30 6 52 20 82 52 51 55 54 77 10 65 -75 -22 -139 27 -139 107 0
104 108 164 194 108z m-2174 -205 c0 -99 2 -111 20 -122 34 -22 23 -28 -50
-28 -67 0 -93 12 -50 23 19 5 21 12 18 99 -3 84 -5 93 -22 90 -31 -6 -12 21
25 34 60 22 59 24 59 -96z m160 89 l0 -20 26 20 c15 12 41 21 60 21 50 0 67
-33 72 -143 4 -77 7 -90 23 -94 43 -12 14 -23 -56 -23 -74 0 -99 12 -50 24 24
6 25 10 25 84 0 101 -12 120 -63 103 l-37 -13 0 -85 c0 -76 2 -85 20 -90 43
-11 17 -23 -50 -23 -38 0 -70 2 -70 5 0 3 9 14 20 25 34 34 26 185 -10 185
-22 0 -8 21 23 32 49 18 67 16 67 -8z m421 -4 c27 -26 21 -60 -11 -60 -17 0
-29 8 -38 28 -10 20 -20 27 -42 27 -54 0 -78 -76 -45 -139 26 -52 90 -57 128
-11 14 17 28 27 31 22 8 -14 -25 -70 -51 -88 -32 -21 -94 -20 -127 1 -26 17
-56 80 -56 118 0 33 31 85 65 108 37 25 115 22 146 -6z m242 14 c31 -16 57
-50 57 -76 0 -22 -3 -23 -90 -23 -97 0 -104 -5 -78 -53 17 -33 39 -46 76 -47
32 0 72 28 72 52 0 9 3 9 11 1 8 -8 7 -19 -2 -39 -35 -70 -127 -89 -180 -38
-49 47 -56 114 -20 182 24 45 105 66 154 41z"/>
<path d="M3524 1925 c-109 -65 -210 -197 -184 -244 13 -26 49 -16 123 33 57
38 95 85 122 148 16 40 20 98 7 98 -5 0 -35 -16 -68 -35z"/>
<path d="M2926 1105 c-32 -33 -32 -93 0 -142 15 -24 65 -31 93 -14 21 14 17
108 -6 140 -24 31 -64 39 -87 16z"/>
<path d="M3225 1100 c-14 -15 -17 -31 -13 -74 6 -66 20 -86 64 -86 42 0 64 22
64 65 0 92 -67 148 -115 95z"/>
<path d="M3526 1098 c-23 -32 -20 -100 5 -132 22 -28 75 -36 97 -14 17 17 15
93 -3 127 -23 46 -74 56 -99 19z"/>
<path d="M2186 984 c-27 -26 -18 -34 39 -34 59 0 60 1 45 31 -13 23 -62 26
-84 3z"/>
</g>
</svg>
